<svg width="425" height="289" viewBox="0 0 425 289" fill="none" xmlns="http://www.w3.org/2000/svg">
<g clip-path="url(#clip0_2940_14)">
<path d="M262.5 204.5H163.5C161.015 204.5 159 202.487 159 200V110C159 107.513 161.015 105.5 163.5 105.5H262.5C264.985 105.5 267 107.513 267 110V200C267 202.487 264.985 204.5 262.5 204.5ZM168 195.5H258V114.5H168V195.5Z" fill="white"/>
<path d="M262.5 114.5H163.5C161.681 114.5 160.039 113.406 159.343 111.723C158.646 110.04 159.031 108.106 160.318 106.818L178.318 88.8185C179.162 87.9747 180.307 87.5 181.5 87.5H244.5C245.693 87.5 246.838 87.9747 247.681 88.8185L265.681 106.818C266.969 108.106 267.354 110.04 266.657 111.723C265.96 113.406 264.319 114.5 262.5 114.5ZM174.363 105.5H251.637L242.637 96.5H183.363L174.363 105.5Z" fill="white"/>
<path d="M226.5 141.5H199.5C197.015 141.5 195 139.487 195 137V110C195 107.513 197.015 105.5 199.5 105.5H226.5C228.985 105.5 231 107.513 231 110V137C231 139.487 228.985 141.5 226.5 141.5ZM204 132.5H222V114.5H204V132.5Z" fill="white"/>
<path d="M226.5 114.5H199.5C198.113 114.5 196.806 113.863 195.953 112.768C195.101 111.679 194.798 110.255 195.134 108.91L199.634 90.9101C200.135 88.9062 201.934 87.5 204 87.5H222C224.065 87.5 225.865 88.9062 226.366 90.9101L230.866 108.91C231.202 110.255 230.898 111.679 230.046 112.768C229.193 113.863 227.886 114.5 226.5 114.5ZM205.263 105.5H220.737L218.487 96.5H207.513L205.263 105.5Z" fill="white"/>
<path d="M244.5 186.5H235.5C233.015 186.5 231 184.487 231 182C231 179.513 233.015 177.5 235.5 177.5H244.5C246.985 177.5 249 179.513 249 182C249 184.487 246.985 186.5 244.5 186.5Z" fill="white"/>
<path d="M194.334 252.312C169.34 248.049 146.581 234.905 130.251 215.297L137.168 209.54C152.127 227.5 172.966 239.537 195.846 243.444L194.334 252.312Z" fill="white"/>
<path d="M137.168 82.4595L130.251 76.7027C146.581 57.0944 169.34 43.9504 194.334 39.6875L195.846 48.5557C172.965 52.4626 152.127 64.4992 137.168 82.4595Z" fill="white"/>
<path d="M314.47 183.006L306.019 179.912C309.987 169.062 312 157.654 312 146C312 134.346 309.987 122.937 306.019 112.087L314.47 108.994C318.803 120.837 321 133.286 321 146C321 158.713 318.803 171.163 314.47 183.006Z" fill="white"/>
<path d="M231.665 252.312L230.154 243.444C253.034 239.537 273.873 227.5 288.832 209.54L295.749 215.297C279.419 234.905 256.659 248.049 231.665 252.312Z" fill="white"/>
<path d="M288.832 82.4595C273.873 64.4992 253.034 52.4626 230.154 48.5557L231.665 39.6875C256.659 43.9504 279.418 57.0944 295.749 76.7027L288.832 82.4595Z" fill="white"/>
<path d="M111.53 183.006C107.197 171.163 105 158.713 105 146C105 133.286 107.197 120.837 111.53 108.994L119.981 112.087C116.013 122.937 114 134.346 114 146C114 157.654 116.013 169.062 119.981 179.912L111.53 183.006Z" fill="white"/>
<path d="M213 65C200.594 65 190.5 54.9056 190.5 42.5C190.5 30.0944 200.594 20 213 20C225.406 20 235.5 30.0944 235.5 42.5C235.5 54.9056 225.406 65 213 65ZM213 29C205.556 29 199.5 35.0557 199.5 42.5C199.5 49.9443 205.556 56 213 56C220.444 56 226.5 49.9443 226.5 42.5C226.5 35.0557 220.444 29 213 29Z" fill="white"/>
<path d="M123.329 116.759C119.431 116.759 115.584 115.735 112.117 113.735C101.372 107.53 97.6762 93.7444 103.879 82.9998C106.885 77.7969 111.736 74.0745 117.544 72.5189C123.351 70.9502 129.413 71.7629 134.616 74.7644C139.821 77.7704 143.544 82.6218 145.099 88.4268C146.655 94.2318 145.855 100.296 142.852 105.499C139.846 110.702 134.994 114.425 129.189 115.98C127.251 116.503 125.285 116.759 123.329 116.759ZM123.389 80.7543C118.717 80.7543 114.171 83.1757 111.675 87.4998C107.953 93.9465 110.17 102.217 116.617 105.939C123.063 109.662 131.338 107.447 135.056 101C138.778 94.5531 136.564 86.2825 130.117 82.5601C127.996 81.3339 125.676 80.7543 123.389 80.7543Z" fill="white"/>
<path d="M123.402 220.259C121.449 220.259 119.482 220.004 117.544 219.481C111.737 217.925 106.885 214.203 103.879 209C97.6766 198.255 101.372 184.47 112.117 178.265C117.327 175.263 123.391 174.454 129.19 176.019C134.995 177.575 139.847 181.297 142.852 186.5C145.856 191.703 146.656 197.768 145.1 203.573C143.544 209.378 139.822 214.229 134.617 217.235C131.149 219.234 127.302 220.259 123.402 220.259ZM123.345 184.254C121.055 184.254 118.738 184.835 116.617 186.061C110.17 189.783 107.953 198.053 111.676 204.5C115.394 210.943 123.662 213.162 130.117 209.44C136.564 205.718 138.779 197.448 135.057 191C132.561 186.676 128.014 184.254 123.345 184.254Z" fill="white"/>
<path d="M213 272C200.594 272 190.5 261.906 190.5 249.5C190.5 237.094 200.594 227 213 227C225.406 227 235.5 237.094 235.5 249.5C235.5 261.906 225.406 272 213 272ZM213 236C205.556 236 199.5 242.056 199.5 249.5C199.5 256.944 205.556 263 213 263C220.444 263 226.5 256.944 226.5 249.5C226.5 242.056 220.444 236 213 236Z" fill="white"/>
<path d="M302.598 220.259C298.698 220.259 294.85 219.235 291.383 217.235C286.178 214.229 282.455 209.378 280.9 203.573C279.344 197.768 280.144 191.703 283.147 186.5C286.153 181.298 291.005 177.575 296.81 176.019C302.609 174.455 308.677 175.263 313.882 178.265C324.627 184.47 328.323 198.256 322.12 209C319.114 214.203 314.263 217.926 308.455 219.481C306.517 220.004 304.551 220.259 302.598 220.259ZM302.655 184.254C297.986 184.254 293.439 186.676 290.944 191C287.222 197.447 289.436 205.717 295.883 209.44C302.33 213.166 310.607 210.943 314.325 204.5C318.047 198.053 315.83 189.783 309.383 186.06C307.263 184.834 304.945 184.254 302.655 184.254Z" fill="white"/>
<path d="M302.67 116.759C300.715 116.759 298.748 116.504 296.81 115.981C291.005 114.425 286.153 110.703 283.148 105.5C280.144 100.297 279.345 94.2325 280.9 88.4275C282.456 82.6225 286.178 77.7706 291.383 74.765C296.586 71.7635 302.651 70.9504 308.456 72.5195C314.263 74.0752 319.115 77.7976 322.121 83.0005C328.323 93.7451 324.628 107.531 313.883 113.736C310.416 115.735 306.568 116.759 302.67 116.759ZM302.611 80.7545C300.324 80.7545 298.003 81.3346 295.883 82.5608C289.436 86.2828 287.221 94.5533 290.943 101C294.663 107.447 302.936 109.662 309.383 105.94C315.83 102.218 318.047 93.9476 314.324 87.5005C311.828 83.1764 307.28 80.7545 302.611 80.7545Z" fill="white"/>
</g>
<defs>
<clipPath id="clip0_2940_14">
<rect width="425" height="289" fill="white"/>
</clipPath>
</defs>
</svg>
