<svg width="300" height="88" viewBox="0 0 300 88" fill="none" xmlns="http://www.w3.org/2000/svg">
<path d="M274.989 59.1549C270.729 60.4498 266.402 61.5402 262.04 62.3921C257.678 63.244 253.317 63.9255 248.921 64.2662C246.706 64.4366 244.525 64.5389 242.31 64.5729C240.129 64.607 237.915 64.607 235.7 64.4707C231.304 64.2663 226.942 63.7551 222.615 62.9373C218.287 62.1536 213.994 61.1654 209.768 59.9387C207.656 59.3253 205.543 58.6779 203.43 57.9964C201.318 57.3149 199.239 56.5993 197.024 55.8837C188.301 53.2258 179.339 51.3517 170.241 50.3635C161.143 49.4434 151.976 49.2731 142.912 50.0227C133.814 50.7042 124.852 52.2376 116.061 54.4525C111.665 55.6111 107.338 56.9059 103.112 58.4053C98.8869 59.9387 94.6956 61.5743 90.7087 63.6188C92.8214 62.8351 94.9341 62.1195 97.0808 61.438C99.2276 60.7565 101.374 60.1431 103.521 59.5979C107.849 58.4393 112.21 57.4512 116.606 56.6334C121.002 55.7815 125.398 55.1 129.827 54.6229C134.257 54.1118 138.687 53.7369 143.151 53.5666C152.045 53.2599 160.938 53.5325 169.73 54.657C178.487 55.7474 187.176 57.5875 195.559 60.2453L201.931 62.2899C204.078 62.9714 206.259 63.6188 208.439 64.2322C212.835 65.4589 217.265 66.5152 221.797 67.2308C230.861 68.662 240.198 68.9687 249.296 67.8101C253.862 67.2649 258.36 66.4471 262.756 65.3226C267.185 64.1981 271.513 62.8351 275.738 61.2676C284.189 58.0986 292.299 54.1799 300 49.6479C291.822 53.294 283.508 56.6333 274.989 59.1549Z" fill="white"/>
<path d="M25.1817 66.5493C18.6052 66.6515 9.26851 63.721 2.89641 59.3594C9.23444 75.7837 25.1477 87.4375 43.7869 87.4375C61.0632 87.4375 75.9882 77.4534 83.144 62.9714C75.886 59.5298 69.4798 57.1445 61.3017 57.2467C45.5248 57.4852 40.9587 66.2767 25.1817 66.5493ZM39.6638 47.6715V0C17.3785 2.04453 0 20.786 0 43.6165C0 44.9455 0.0681508 46.2744 0.170377 47.6034C0.37483 49.8523 0.749665 52.0672 1.29487 54.214C7.59883 59.2231 18.06 62.7328 25.1817 62.5965C40.9587 62.358 45.5248 53.5325 61.3017 53.2939C69.8887 53.1576 76.5334 55.8155 84.2344 59.5298L84.5752 59.7001C86.0745 55.9518 87.0286 51.8628 87.4375 47.6715H39.6638Z" fill="white"/>
<path d="M70.9109 13.3235L69.7864 2.89639H43.855V44.7069H55.9858V32.2012H67.4352L68.6278 22.1831H56.0199V13.3575H70.9109V13.3235ZM102.84 26.3743C103.589 25.9314 104.339 25.2839 105.054 24.4661C105.77 23.6483 106.383 22.592 106.895 21.2971C107.406 20.0363 107.644 18.4689 107.644 16.5947C107.644 14.1754 107.133 12.0286 106.077 10.1885C105.02 8.34844 103.589 6.84914 101.749 5.62242C99.9091 4.39571 97.6941 3.47567 95.1726 2.89639C92.651 2.28303 89.8909 1.97635 86.8922 1.97635C85.3929 1.97635 83.9618 2.04449 82.5987 2.18079C81.2357 2.31709 79.9749 2.48748 78.8845 2.65786C77.7941 2.82823 76.8741 2.9986 76.1244 3.20306C75.3748 3.37343 74.8977 3.47566 74.6932 3.54381V44.7069H86.8241V25.1817L99.3639 45.7633L110.438 40.2771L100.897 27.4307C101.442 27.1922 102.056 26.8173 102.84 26.3743ZM94.9681 20.0023C94.5592 20.6838 94.0481 21.263 93.4007 21.706C92.7532 22.149 92.0376 22.4897 91.2198 22.6942C90.402 22.8987 89.5842 23.0009 88.7664 23.0009C88.4597 23.0009 88.119 23.0009 87.7782 22.9668C87.4375 22.9327 87.1308 22.9327 86.79 22.8646V12.4375C86.8582 12.4034 87.0626 12.3694 87.3352 12.3353C87.6419 12.3012 88.2212 12.2671 89.1412 12.2671C89.925 12.2671 90.7087 12.3694 91.4584 12.6079C92.208 12.8123 92.8895 13.1531 93.5029 13.5961C94.0822 14.039 94.5592 14.5843 94.934 15.2317C95.3089 15.9132 95.4792 16.6969 95.4792 17.5829C95.5474 18.5029 95.377 19.3207 94.9681 20.0023ZM124.954 29.9523H136.642L137.631 20.1045H124.954V13.3235H139.914L138.721 2.89639H112.79V44.7069H139.777L141.481 34.2798H124.92V29.9523H124.954ZM142.503 13.3235H153.544V44.6728H165.675V13.3235H174.739L176.17 2.89639H143.935L142.503 13.3235ZM192.288 2.89639H180.157V44.7069H205.338L206.395 34.2798H192.322V2.89639H192.288ZM246.433 8.2803C244.423 6.338 242.038 4.80461 239.346 3.68012C236.62 2.55563 233.757 2.01042 230.691 2.01042C227.556 2.01042 224.625 2.58971 221.899 3.74827C219.173 4.90684 216.822 6.4743 214.811 8.45068C212.801 10.4271 211.233 12.7101 210.075 15.368C208.916 18.0259 208.337 20.8201 208.337 23.7846C208.337 26.8855 208.916 29.7819 210.041 32.4057C211.165 35.0636 212.733 37.3466 214.743 39.2889C216.72 41.2312 219.071 42.7646 221.797 43.855C224.523 44.9455 227.419 45.4907 230.588 45.4907C233.757 45.4907 236.722 44.9454 239.448 43.821C242.174 42.6965 244.559 41.1631 246.536 39.2208C248.546 37.2785 250.114 34.9613 251.238 32.3375C252.362 29.6797 252.942 26.8173 252.942 23.7505C252.942 20.6838 252.363 17.8214 251.204 15.1635C250.045 12.5397 248.478 10.2226 246.433 8.2803ZM238.937 27.8737C238.46 29.1345 237.812 30.2249 236.994 31.1108C236.177 32.0309 235.223 32.7124 234.098 33.1894C233.008 33.6665 231.849 33.905 230.622 33.905C229.498 33.905 228.373 33.7006 227.249 33.2576C226.159 32.8146 225.17 32.1672 224.284 31.3153C223.432 30.4634 222.717 29.373 222.172 28.1122C221.626 26.8514 221.354 25.318 221.354 23.6142C221.354 21.9786 221.592 20.5134 222.104 19.2526C222.581 17.9918 223.262 16.9355 224.114 16.0495C224.966 15.1635 225.954 14.482 227.079 14.0391C228.203 13.5961 229.43 13.3575 230.691 13.3575C231.917 13.3575 233.076 13.5961 234.166 14.1072C235.257 14.5842 236.211 15.2998 237.029 16.1858C237.846 17.0718 238.46 18.1281 238.937 19.3889C239.414 20.6497 239.652 22.0468 239.652 23.6483C239.652 25.1817 239.414 26.6129 238.937 27.8737ZM299.046 22.149C299.012 21.5356 299.012 21.0586 299.012 20.7178H274.137L272.365 29.2708H286.233C286.233 29.7137 286.131 30.259 285.893 30.9064C285.654 31.5879 285.245 32.2353 284.632 32.8487C284.019 33.462 283.201 34.0073 282.144 34.4843C281.088 34.9273 279.759 35.1658 278.089 35.1658C276.113 35.1658 274.477 34.8251 273.114 34.1776C271.751 33.5302 270.661 32.6783 269.775 31.622C268.923 30.5656 268.276 29.3389 267.901 28.01C267.492 26.647 267.322 25.2839 267.322 23.8528C267.322 22.2512 267.594 20.7519 268.139 19.3889C268.685 18.0259 269.434 16.8673 270.422 15.8791C271.377 14.8909 272.535 14.1413 273.864 13.5961C275.193 13.0509 276.658 12.7783 278.294 12.7783C279.725 12.7783 280.952 12.9486 282.008 13.3235C283.064 13.6642 283.95 14.0731 284.7 14.5161C285.416 14.9591 285.995 15.4021 286.37 15.811C286.779 16.2199 286.983 16.4925 287.085 16.5947L294.616 8.99588C294.582 8.9618 294.173 8.58698 293.423 7.83732C292.674 7.12174 291.617 6.30393 290.22 5.45205C288.823 4.60016 287.119 3.81642 285.109 3.10083C283.099 2.38525 280.815 2.0445 278.26 2.0445C274.852 2.0445 271.717 2.58971 268.923 3.68012C266.129 4.77053 263.71 6.26986 261.699 8.17808C259.689 10.1204 258.155 12.4034 257.065 15.0613C255.974 17.7192 255.429 20.5815 255.429 23.6824C255.429 26.4766 255.906 29.1685 256.895 31.7923C257.883 34.4161 259.314 36.7333 261.188 38.7778C263.062 40.8223 265.413 42.458 268.174 43.6847C270.934 44.9114 274.137 45.5247 277.749 45.5247C281.667 45.5247 285.007 44.7751 287.699 43.3098C290.425 41.8446 292.606 40.0045 294.309 37.7555C296.013 35.5406 297.206 33.1213 297.921 30.5656C298.637 27.9759 299.012 25.5906 299.012 23.4098C299.08 23.1372 299.046 22.7624 299.046 22.149Z" fill="white"/>
</svg>
